<svg aria-hidden="true" style="width:0;height:0;position:absolute;overflow:hidden" xmlns="http://www.w3.org/2000/svg"><defs><symbol id="instagram" viewBox="0 0 32 32"><path fill="#fff" style="fill:var(--color1,#fff)" d="M30.694 14.694c0 8.115-6.579 14.694-14.694 14.694S1.306 22.809 1.306 14.694C1.306 6.579 7.885 0 16 0s14.694 6.579 14.694 14.694z"/><path fill="#ffc158" style="fill:var(--color2,#ffc158)" d="M16 12.569c-1.17 0-2.125.955-2.125 2.125s.955 2.125 2.125 2.125 2.125-.955 2.125-2.125-.955-2.125-2.125-2.125zm6.374 2.125c0-.88.008-1.752-.041-2.631-.049-1.02-.282-1.926-1.028-2.672-.748-.748-1.652-.979-2.672-1.028-.88-.049-1.752-.041-2.631-.041-.88 0-1.752-.008-2.631.041-1.02.049-1.926.282-2.672 1.028-.748.748-.979 1.652-1.028 2.672-.049.88-.041 1.752-.041 2.631s-.008 1.752.041 2.631c.049 1.02.282 1.926 1.028 2.672.748.748 1.652.979 2.672 1.028.88.049 1.752.041 2.631.041.88 0 1.752.008 2.631-.041 1.02-.049 1.926-.282 2.672-1.028.748-.748.979-1.652 1.028-2.672.051-.878.041-1.751.041-2.631zM16 17.964c-1.81 0-3.27-1.46-3.27-3.27s1.46-3.27 3.27-3.27 3.27 1.46 3.27 3.27-1.46 3.27-3.27 3.27zm3.404-5.91a.763.763 0 1 1-.001-1.527.763.763 0 0 1 .001 1.527z"/></symbol><symbol id="facebook" viewBox="0 0 32 32"><path fill="#fff" style="fill:var(--color1,#fff)" d="M30.694 14.694c0 8.115-6.579 14.694-14.694 14.694S1.306 22.809 1.306 14.694C1.306 6.579 7.885 0 16 0s14.694 6.579 14.694 14.694z"/><path fill="#ffc158" style="fill:var(--color2,#ffc158)" d="M9.796 14.729c0 3.084 2.24 5.649 5.17 6.169v-4.481h-1.551v-1.723h1.551v-1.379c0-1.551.999-2.412 2.413-2.412.448 0 .931.069 1.378.138v1.586h-.793c-.758 0-.931.379-.931.862v1.206h1.654l-.276 1.723h-1.379v4.481c2.93-.52 5.17-3.084 5.17-6.169 0-3.431-2.792-6.239-6.204-6.239s-6.204 2.807-6.204 6.239z"/></symbol><symbol id="menu" viewBox="0 0 32 32"><path stroke-linejoin="round" stroke-linecap="round" stroke-width="1.255" d="M4 16h24M4 8h24M4 24h24"/></symbol><symbol id="close" viewBox="0 0 32 32"><path stroke-linejoin="round" stroke-linecap="round" stroke-width="1.032" d="M24 8 8 24M8 8l16 16"/></symbol><symbol id="icon-open" viewBox="0 0 32 32"><path d="M6.4 11.734V9.6h19.2v2.134H6.4zm0 5.332h19.2v-2.133H6.4v2.133zm0 5.334h19.2v-2.134H6.4V22.4z"/></symbol><symbol id="icon-close" viewBox="0 0 32 32"><path d="M23.734 10.304 22.23 8.8l-5.963 5.962L10.305 8.8l-1.504 1.504 5.962 5.962-5.962 5.963 1.504 1.504 5.962-5.963 5.963 5.963 1.504-1.504-5.963-5.963 5.963-5.962z"/></symbol><symbol id="icon-dialog" viewBox="0 0 103 32"><path fill="#fff" style="fill:var(--color1,#fff)" d="M97.454 14.143C97.398 8.116 76.559 3.412 50.91 3.636S4.514 8.928 4.569 14.955c.056 6.027 20.895 10.731 46.544 10.507S97.51 20.17 97.454 14.143z"/></symbol></defs></svg>