<svg width="98" height="98" viewBox="0 0 98 98" fill="none" xmlns="http://www.w3.org/2000/svg">
<g filter="url(#filter0_d_124_3814)">
<circle cx="49" cy="45" r="45" fill="white"/>
</g>
<path d="M49 38.4917C45.416 38.4917 42.4912 41.4165 42.4912 45.0005C42.4912 48.5845 45.416 51.5093 49 51.5093C52.584 51.5093 55.5088 48.5845 55.5088 45.0005C55.5088 41.4165 52.584 38.4917 49 38.4917ZM68.5215 45.0005C68.5215 42.3052 68.5459 39.6343 68.3945 36.9438C68.2432 33.8188 67.5303 31.0454 65.2451 28.7602C62.9551 26.4702 60.1865 25.7622 57.0615 25.6108C54.3662 25.4595 51.6953 25.4839 49.0049 25.4839C46.3096 25.4839 43.6387 25.4595 40.9482 25.6108C37.8232 25.7622 35.0498 26.4751 32.7646 28.7602C30.4746 31.0503 29.7666 33.8188 29.6152 36.9438C29.4639 39.6392 29.4883 42.3101 29.4883 45.0005C29.4883 47.6909 29.4639 50.3667 29.6152 53.0571C29.7666 56.1821 30.4795 58.9556 32.7646 61.2407C35.0547 63.5308 37.8232 64.2388 40.9482 64.3901C43.6435 64.5415 46.3144 64.5171 49.0049 64.5171C51.7002 64.5171 54.3711 64.5415 57.0615 64.3901C60.1865 64.2388 62.96 63.5259 65.2451 61.2407C67.5352 58.9507 68.2432 56.1821 68.3945 53.0571C68.5508 50.3667 68.5215 47.6958 68.5215 45.0005ZM49 55.0151C43.458 55.0151 38.9853 50.5425 38.9853 45.0005C38.9853 39.4585 43.458 34.9858 49 34.9858C54.542 34.9858 59.0146 39.4585 59.0146 45.0005C59.0146 50.5425 54.542 55.0151 49 55.0151ZM59.4248 36.9145C58.1309 36.9145 57.0859 35.8696 57.0859 34.5757C57.0859 33.2817 58.1309 32.2368 59.4248 32.2368C60.7187 32.2368 61.7637 33.2817 61.7637 34.5757C61.7641 34.8829 61.7038 35.1872 61.5864 35.4712C61.469 35.7551 61.2967 36.0131 61.0795 36.2304C60.8622 36.4476 60.6042 36.6199 60.3203 36.7373C60.0364 36.8547 59.7321 36.9149 59.4248 36.9145Z" fill="#FFC158"/>
<defs>
<filter id="filter0_d_124_3814" x="0" y="0" width="98" height="98" filterUnits="userSpaceOnUse" color-interpolation-filters="sRGB">
<feFlood flood-opacity="0" result="BackgroundImageFix"/>
<feColorMatrix in="SourceAlpha" type="matrix" values="0 0 0 0 0 0 0 0 0 0 0 0 0 0 0 0 0 0 127 0" result="hardAlpha"/>
<feOffset dy="4"/>
<feGaussianBlur stdDeviation="2"/>
<feColorMatrix type="matrix" values="0 0 0 0 1 0 0 0 0 0.756863 0 0 0 0 0.345098 0 0 0 0.3 0"/>
<feBlend mode="normal" in2="BackgroundImageFix" result="effect1_dropShadow_124_3814"/>
<feBlend mode="normal" in="SourceGraphic" in2="effect1_dropShadow_124_3814" result="shape"/>
</filter>
</defs>
</svg>
